{
	"asset":{
		"version":"2.0",
		"generator":"Created using the official Cinema 4D glTF Exporter 1.000x284978"
	},
	"scenes":[{
		"nodes":[0,
		7]
	}],
	"nodes":[{
		"rotation":[0.0,
		0.0,
		0.0,
		-1.0],
		"name":"Text",
		"translation":[0.0,
		23.900197982788087,
		0.0],
		"scale":[1.0,
		1.0,
		1.0],
		"children":[1]
	},
	{
		"rotation":[0.0,
		0.0,
		0.0,
		-1.0],
		"name":"1",
		"translation":[-20.6884765625,
		0.0,
		0.0],
		"scale":[1.0,
		1.0,
		1.0],
		"children":[2]
	},
	{
		"name":"QIQI",
		"children":[3,
		4,
		5,
		6]
	},
	{
		"name":"Q",
		"mesh":0
	},
	{
		"rotation":[0.0,
		0.0,
		0.0,
		-1.0],
		"name":"I",
		"translation":[15.556640625,
		0.0,
		0.0],
		"scale":[1.0,
		1.0,
		1.0],
		"mesh":1
	},
	{
		"rotation":[0.0,
		0.0,
		0.0,
		-1.0],
		"name":"Q",
		"translation":[21.11328125,
		0.0,
		0.0],
		"scale":[1.0,
		1.0,
		1.0],
		"mesh":2
	},
	{
		"rotation":[0.0,
		0.0,
		0.0,
		-1.0],
		"name":"I",
		"translation":[36.669921875,
		0.0,
		0.0],
		"scale":[1.0,
		1.0,
		1.0],
		"mesh":3
	},
	{
		"rotation":[0.0,
		0.0,
		0.0,
		-1.0],
		"name":"Sphere",
		"translation":[0.0,
		12.922452926635743,
		0.0],
		"scale":[1.0,
		1.0,
		1.0],
		"mesh":4
	}],
	"meshes":[{
		"name":"Q",
		"primitives":[{
			"attributes":{
				"POSITION":1,
				"NORMAL":2,
				"TEXCOORD_0":3
			},
			"indices":0,
			"material":0
		}]
	},
	{
		"name":"I",
		"primitives":[{
			"attributes":{
				"POSITION":5,
				"NORMAL":6,
				"TEXCOORD_0":7
			},
			"indices":4,
			"material":0
		}]
	},
	{
		"name":"Q",
		"primitives":[{
			"attributes":{
				"POSITION":9,
				"NORMAL":10,
				"TEXCOORD_0":11
			},
			"indices":8,
			"material":0
		}]
	},
	{
		"name":"I",
		"primitives":[{
			"attributes":{
				"POSITION":13,
				"NORMAL":14,
				"TEXCOORD_0":15
			},
			"indices":12,
			"material":0
		}]
	},
	{
		"name":"Sphere",
		"primitives":[{
			"attributes":{
				"POSITION":17,
				"NORMAL":18,
				"TEXCOORD_0":19
			},
			"indices":16,
			"material":0
		}]
	}],
	"accessors":[{
		"bufferView":0,
		"type":"SCALAR",
		"componentType":5123,
		"count":1704,
		"byteOffset":0,
		"min":[0],
		"max":[585]
	},
	{
		"bufferView":1,
		"type":"VEC3",
		"componentType":5126,
		"count":586,
		"byteOffset":0,
		"min":[0.78125,
		-1.142578125,
		-0.20000000298023225],
		"max":[14.765625,
		14.736328125,
		0.0]
	},
	{
		"bufferView":1,
		"type":"VEC3",
		"componentType":5126,
		"count":586,
		"byteOffset":12,
		"min":[-0.9999971389770508,
		-0.9999999403953552,
		-1.0],
		"max":[0.9999606609344482,
		0.9999886751174927,
		1.0]
	},
	{
		"bufferView":1,
		"type":"VEC2",
		"componentType":5126,
		"count":586,
		"byteOffset":24,
		"min":[0.0,
		0.0],
		"max":[1.0,
		1.0]
	},
	{
		"bufferView":2,
		"type":"SCALAR",
		"componentType":5123,
		"count":36,
		"byteOffset":0,
		"min":[0],
		"max":[23]
	},
	{
		"bufferView":3,
		"type":"VEC3",
		"componentType":5126,
		"count":24,
		"byteOffset":0,
		"min":[1.962890625,
		0.0,
		-0.20000000298023225],
		"max":[3.92578125,
		14.345703125,
		0.0]
	},
	{
		"bufferView":3,
		"type":"VEC3",
		"componentType":5126,
		"count":24,
		"byteOffset":12,
		"min":[-1.0,
		-1.0,
		-1.0],
		"max":[1.0,
		1.0,
		1.0]
	},
	{
		"bufferView":3,
		"type":"VEC2",
		"componentType":5126,
		"count":24,
		"byteOffset":24,
		"min":[0.0,
		0.0],
		"max":[1.0,
		1.0]
	},
	{
		"bufferView":4,
		"type":"SCALAR",
		"componentType":5123,
		"count":1704,
		"byteOffset":0,
		"min":[0],
		"max":[585]
	},
	{
		"bufferView":5,
		"type":"VEC3",
		"componentType":5126,
		"count":586,
		"byteOffset":0,
		"min":[0.78125,
		-1.142578125,
		-0.20000000298023225],
		"max":[14.765625,
		14.736328125,
		0.0]
	},
	{
		"bufferView":5,
		"type":"VEC3",
		"componentType":5126,
		"count":586,
		"byteOffset":12,
		"min":[-0.9999971389770508,
		-0.9999999403953552,
		-1.0],
		"max":[0.9999606609344482,
		0.9999886751174927,
		1.0]
	},
	{
		"bufferView":5,
		"type":"VEC2",
		"componentType":5126,
		"count":586,
		"byteOffset":24,
		"min":[0.0,
		0.0],
		"max":[1.0,
		1.0]
	},
	{
		"bufferView":6,
		"type":"SCALAR",
		"componentType":5123,
		"count":36,
		"byteOffset":0,
		"min":[0],
		"max":[23]
	},
	{
		"bufferView":7,
		"type":"VEC3",
		"componentType":5126,
		"count":24,
		"byteOffset":0,
		"min":[1.962890625,
		0.0,
		-0.20000000298023225],
		"max":[3.92578125,
		14.345703125,
		0.0]
	},
	{
		"bufferView":7,
		"type":"VEC3",
		"componentType":5126,
		"count":24,
		"byteOffset":12,
		"min":[-1.0,
		-1.0,
		-1.0],
		"max":[1.0,
		1.0,
		1.0]
	},
	{
		"bufferView":7,
		"type":"VEC2",
		"componentType":5126,
		"count":24,
		"byteOffset":24,
		"min":[0.0,
		0.0],
		"max":[1.0,
		1.0]
	},
	{
		"bufferView":8,
		"type":"SCALAR",
		"componentType":5123,
		"count":672,
		"byteOffset":0,
		"min":[0],
		"max":[150]
	},
	{
		"bufferView":9,
		"type":"VEC3",
		"componentType":5126,
		"count":151,
		"byteOffset":0,
		"min":[-10.0,
		-10.0,
		-10.0],
		"max":[10.0,
		10.0,
		10.0]
	},
	{
		"bufferView":9,
		"type":"VEC3",
		"componentType":5126,
		"count":151,
		"byteOffset":12,
		"min":[-0.9999999403953552,
		-1.0,
		-0.9999999403953552],
		"max":[0.9999999403953552,
		1.0,
		0.9999999403953552]
	},
	{
		"bufferView":9,
		"type":"VEC2",
		"componentType":5126,
		"count":151,
		"byteOffset":24,
		"min":[0.0,
		0.0],
		"max":[1.0,
		1.0]
	}],
	"bufferViews":[{
		"buffer":0,
		"byteOffset":0,
		"byteLength":3408,
		"target":34963
	},
	{
		"buffer":0,
		"byteOffset":3408,
		"byteLength":18752,
		"target":34962,
		"byteStride":32
	},
	{
		"buffer":1,
		"byteOffset":0,
		"byteLength":72,
		"target":34963
	},
	{
		"buffer":1,
		"byteOffset":72,
		"byteLength":768,
		"target":34962,
		"byteStride":32
	},
	{
		"buffer":2,
		"byteOffset":0,
		"byteLength":3408,
		"target":34963
	},
	{
		"buffer":2,
		"byteOffset":3408,
		"byteLength":18752,
		"target":34962,
		"byteStride":32
	},
	{
		"buffer":3,
		"byteOffset":0,
		"byteLength":72,
		"target":34963
	},
	{
		"buffer":3,
		"byteOffset":72,
		"byteLength":768,
		"target":34962,
		"byteStride":32
	},
	{
		"buffer":4,
		"byteOffset":0,
		"byteLength":1344,
		"target":34963
	},
	{
		"buffer":4,
		"byteOffset":1344,
		"byteLength":4832,
		"target":34962,
		"byteStride":32
	}],
	"buffers":[{
		"uri":"data:application/octet-stream;base64,",
		"byteLength":22160
	},
	{
		"uri":"data:application/octet-stream;base64,",
		"byteLength":840
	},
	{
		"uri":"data:application/octet-stream;base64,",
		"byteLength":22160
	},
	{
		"uri":"data:application/octet-stream;base64,",
		"byteLength":840
	},
	{
		"uri":"data:application/octet-stream;base64,",
		"byteLength":6176
	}],
	"materials":[{
		"pbrMetallicRoughness":{
			"baseColorFactor":[0.8,
			0.8,
			0.8,
			1.0],
			"metallicFactor":0.0,
			"roughnessFactor":0.5
		},
		"emissiveFactor":[1.0,
		0.6833333333333334,
		0.0],
		"alphaMode":"OPAQUE",
		"doubleSided":false,
		"name":"Mat"
	}]
}